<svg version="1.1" xmlns="http://www.w3.org/2000/svg" viewBox="0 0 250 250"><desc>Created with Snap</desc><defs></defs><g transform="matrix(0.0701,0,0,0.0701,65.7608,146.8618)"><g transform="matrix(7.427,0,0,7.427,-640.6489,-1797.1489)">
<g id="gSkwi75r4f29w">
	<g>
		<path d="M361.85498,132.95007l-21.40002-73.41016l-73.41003-21.3999l-66.54004-36.5l-0.5-0.28003l-67.04993,36.78003
			l-73.41003,21.3999l-21.3999,73.41016L1.63501,199.49011l-0.27002,0.51001l36.78003,67.03979l21.3999,73.42017l73.41003,21.3999
			l66.53992,36.5l0.51001,0.28003l67.04004-36.78003l73.41003-21.3999l21.40002-73.42017l36.51001-66.53979l0.27002-0.5
			L361.85498,132.95007z M367.20496,147.07019l17.91003,32.65991l-4.81006,16.51001l-13.71997-47.05005L367.20496,147.07019z
			 M43.21484,217.17004l-8.70996,29.88013l-13.70996-47.05005l13.70996-47.05005l8.70996,29.87988l-9.13989,16.66016
			l-0.28003,0.51001L43.21484,217.17004z M36.19495,200.00012l7.85999-14.31006l4.16992,14.31006l-4.17993,14.30981
			L36.19495,200.00012z M309.20496,96.10999l12.0199,6.59009l9.53003,32.67993L309.20496,96.10999z M307.32495,92.67004
			l-7.17004-13.06006l15.67004,4.56006l4.57007,15.67017L307.32495,92.67004z M317.5249,82.4801l-18.80005-5.47998
			l-14.96997-27.29004l42.95996,23.57007l23.58008,42.96997l-27.29004-14.97998L317.5249,82.4801z M303.88501,90.78992
			L264.625,69.25012l32.66992,9.52002L303.88501,90.78992z M203.76489,49.30994l13.16003-3.82983l29.83997,16.36987
			L203.76489,49.30994z M200.00488,48.22009l-14.31995-4.16992l14.31995-7.8501l14.31006,7.8501L200.00488,48.22009z
			 M200.50488,34.07019l-0.5-0.27002l-17.16992,9.40991l-29.89001-8.70996l47.05994-13.71021l47.05005,13.71021l-29.89001,8.70996
			L200.50488,34.07019z M183.07495,45.4801l13.15991,3.82983l-43,12.54004L183.07495,45.4801z M96.11499,90.78992l6.58997-12.01978
			l32.67004-9.52002L96.11499,90.78992z M92.67493,92.67004l-13.06995,7.17017l4.56995-15.67017l15.67004-4.56006L92.67493,92.67004
			z M101.2749,77.00012L82.47485,82.4801l-5.47998,18.79004l-27.28992,14.97998l23.57996-42.96997l42.95996-23.57007
			L101.2749,77.00012z M78.7749,102.70007l12.02002-6.59009L69.25488,135.37L78.7749,102.70007z M45.48486,183.07996
			l16.37012-29.83984l-12.54004,43L45.48486,183.07996z M49.31494,203.76013l12.54004,43l-16.37012-29.84009L49.31494,203.76013z
			 M90.79492,303.89001l-12.02002-6.6001L69.24487,264.62L90.79492,303.89001z M92.67493,307.32019l7.55994,13.77979
			l-15.84985-4.56006l-4.78003-16.38989L92.67493,307.32019z M82.5249,317.68005l0.16003,0.56006l18.96997,5.45996
			l14.58997,26.58984l-42.95996-23.56982l-23.57996-42.96997l27.28992,14.96997L82.5249,317.68005z M96.11499,309.21008
			l41.02002,22.5l-34.05005-9.79004L96.11499,309.21008z M195.85498,350.78992l-12.78003,3.73022l-28.34009-15.56006
			L195.85498,350.78992z M199.63501,351.88l14.48999,4.17017l-14.12012,7.75l-14.31995-7.8501L199.63501,351.88z
			 M199.49487,365.92004l0.51001,0.28003l16.98999-9.32007l30,8.63013l-46.98999,13.69995l-47.05994-13.71997l29.89001-8.70996
			L199.49487,365.92004z M216.74487,354.60999l-13.32996-3.82983l43.34998-12.63013L216.74487,354.60999z M303.88501,309.21008
			l-6.59009,12.01001l-32.66992,9.53003L303.88501,309.21008z M307.32495,307.32019l13.07007-7.17017l-4.57007,15.67017
			l-15.67004,4.56982L307.32495,307.32019z M298.72485,323.00012l18.80005-5.47998l5.47998-18.80005l27.29004-14.96997
			l-23.58008,42.96997l-42.95996,23.56982L298.72485,323.00012z M321.22485,297.28992l-12.0199,6.6001L330.74487,264.62
			L321.22485,297.28992z M338.14502,153.24011l16.36987,29.83984l-3.82996,13.16016L338.14502,153.24011z M350.68494,203.76013
			l3.82996,13.15991l-16.36987,29.84009L350.68494,203.76013z M351.7749,200.00012l4.17004-14.31006l7.85999,14.31006
			l-7.85999,14.30981L351.7749,200.00012z M365.92493,200.50012l0.28003-0.5l-9.42004-17.17017l8.70996-29.87988l13.71008,47.05005
			l-13.71008,47.05005l-8.70996-29.88013L365.92493,200.50012z M365.7749,144.47009l-0.28003,0.94995l-0.91992-3.13013
			L365.7749,144.47009z M364.39502,149.19006l-9.04004,31.03003l-19.93005-36.32007L323.83496,104.13l28.33997,15.55005
			l7.72998,14.08008L364.39502,149.19006z M357.18494,124.43005l-1.56995-2.87012l0.86987,0.49023L357.18494,124.43005z
			 M355.65491,119.19006l-1.93005-1.06006l-23.56995-42.96997l15.07996,8.28003L355.65491,119.19006z M338.76489,61.24011
			l5.63013,19.33984l-16.13013-8.84985l-8.83997-16.13013L338.76489,61.24011z M316.56494,54.76013l8.27002,15.08008
			l-42.96997-23.57007l-1.05005-1.92993L316.56494,54.76013z M277.95496,43.51013l0.47998,0.87988l-2.87-1.56982L277.95496,43.51013
			z M280.31494,47.82019l15.55005,28.33984l-39.77002-11.58984L219.7749,44.65002l31.04004-9.05005l15.41992,4.49023
			L280.31494,47.82019z M255.53491,34.22009l2.17004,1.19995l-3.13-0.91992L255.53491,34.22009z M200.00488,3.76013
			l52.92004,29.02979l-2.10999,0.62012l-68.47998-19.95996L200.00488,3.76013z M179.72485,14.88l16.52002,4.81006
			l-53.94995,15.72998L179.72485,14.88z M122.04492,43.51013l2.39001-0.68994l-2.87,1.56982L122.04492,43.51013z
			 M133.76489,40.09021l15.42004-4.49023l31.03992,9.05005l-36.31995,19.92017l-39.7699,11.58984l15.54993-28.33984
			L133.76489,40.09021z M119.19495,44.34021l-1.05994,1.92993L75.16492,69.84021l8.27002-15.07007L119.19495,44.34021z
			 M61.23486,61.24011l19.34009-5.64014L71.73486,71.7301l-16.12988,8.84985L61.23486,61.24011z M54.76489,83.43005
			l15.08008-8.27002L46.2749,118.13l-1.92993,1.06006L54.76489,83.43005z M43.51489,122.05017l0.87012-0.47998l-1.57007,2.85986
			L43.51489,122.05017z M40.09497,133.76013l7.72998-14.08008L76.16492,104.13l-11.58997,39.77002l-19.92993,36.32007
			l-9.04004-31.03003L40.09497,133.76013z M35.42493,142.28992l-0.92004,3.14014l-0.28003-0.95996L35.42493,142.28992z
			 M32.79492,147.07996l0.62,2.11011l-13.71997,47.05005l-4.80994-16.51001L32.79492,147.07996z M3.76489,200.00012
			l9.69006-17.65991l5.14001,17.65991l-5.14001,17.65991L3.76489,200.00012z M32.79492,252.92004l-17.90991-32.6499
			l4.80994-16.51001l13.71997,47.0498L32.79492,252.92004z M34.22485,255.53015l0.28003-0.95996l0.92004,3.13989L34.22485,255.53015
			z M35.60498,250.80994l9.04004-31.02979l19.92993,36.31006l11.58997,39.76978l-28.33997-15.55005l-7.72998-14.07983
			L35.60498,250.80994z M42.81494,275.57019l1.57007,2.85986l-0.87012-0.47998L42.81494,275.57019z M44.34497,280.80994
			l1.92993,1.05005l23.57007,42.96997l-15.08008-8.27002L44.34497,280.80994z M61.23486,338.76013l-5.62988-19.34009
			l16.12988,8.8501l8.84009,16.12988L61.23486,338.76013z M83.43494,345.2301l-8.27002-15.08008l42.97009,23.57007l1.05994,1.92993
			L83.43494,345.2301z M122.04492,356.4801l-0.47998-0.87012l2.87,1.57007L122.04492,356.4801z M119.68494,352.17004
			l-15.17004-27.6499l41.02002,11.80005l34.68994,19.02979l-31.03992,9.04004l-15.42004-4.48999L119.68494,352.17004z
			 M144.46484,365.77014l-2.16992-1.19019l3.13,0.91016L144.46484,365.77014z M147.07495,367.20007l2.10999-0.60986
			l47.05994,13.70996l-16.52002,4.80981L147.07495,367.20007z M200.00488,396.24011l-17.66992-9.68994l17.66992-5.15015
			l17.66003,5.15015L200.00488,396.24011z M220.2749,385.10999l-16.51001-4.80981l47.02002-13.7002l2.13,0.61011L220.2749,385.10999
			z M255.5249,365.77014l-0.95996-0.28003l3.14001-0.91016L255.5249,365.77014z M277.95496,356.4801l-2.39001,0.69995l2.87-1.57007
			L277.95496,356.4801z M266.23486,359.90002l-15.45996,4.51001l-31.15991-8.96997l36.47998-20.02002l39.77002-11.59009
			l-15.55005,28.34009L266.23486,359.90002z M280.81494,355.65002l1.05005-1.92993l42.96997-23.57007l-8.27002,15.08008
			L280.81494,355.65002z M338.76489,338.76013l-19.33997,5.63989l8.83997-16.12988l16.13013-8.8501L338.76489,338.76013z
			 M345.23486,316.55994l-15.07996,8.27002l23.56995-42.96997l1.93005-1.05005L345.23486,316.55994z M356.48486,277.95007
			l-0.86987,0.47998l1.56995-2.85986L356.48486,277.95007z M359.90491,266.2301l-7.72998,14.07983l-28.33997,15.55005
			l11.58997-39.76978l19.93005-36.31006l9.04004,31.02979L359.90491,266.2301z M364.57495,257.71008l0.91992-3.13989
			l0.28003,0.95996L364.57495,257.71008z M367.20496,252.92004l-0.62-2.11011l13.71997-47.0498l4.81006,16.51001
			L367.20496,252.92004z M386.54492,217.66003l-5.14001-17.65991l5.14001-17.67017l9.68994,17.67017L386.54492,217.66003z" fill="#e94b3c" style=""></path>
	</g>
</g>


<desc>Created with Snap</desc><defs></defs></g><g><g transform="matrix(0.5,0,0,-0.5,0,0)"><path d="M768 1409Q741 1409 705 1398Q669 1387 631 1356Q594 1326 558 1271Q522 1216 493 1128Q465 1041 447 916Q430 791 430 621Q430 459 447 340Q465 221 494 137Q524 54 562 1Q600 -52 642 -82Q684 -111 726 -122Q768 -133 805 -133Q844 -133 884 -123Q924 -113 962 -94Q1001 -75 1036 -48Q1072 -21 1102 14L1147 -31Q1117 -68 1075 -107Q1033 -145 977 -177Q922 -208 853 -228Q784 -248 700 -248Q569 -248 456 -198Q344 -148 260 -43Q177 63 129 228Q82 393 82 623Q82 839 132 1002Q182 1165 268 1274Q354 1384 470 1439Q586 1495 717 1495Q804 1495 875 1478Q947 1462 999 1430Q1051 1399 1079 1352Q1108 1306 1108 1247Q1108 1220 1099 1190Q1090 1161 1071 1136Q1053 1112 1026 1096Q999 1081 963 1081Q931 1081 913 1095Q896 1109 887 1132Q879 1155 876 1184Q874 1214 873 1245Q872 1276 868 1305Q865 1335 854 1358Q844 1381 824 1395Q804 1409 768 1409ZM1864 -16Q1780 -16 1740 19Q1700 54 1700 131L1700 1401Q1668 1398 1620 1389Q1573 1381 1521 1365Q1469 1349 1417 1326Q1365 1304 1324 1274Q1283 1245 1257 1208Q1231 1171 1231 1126Q1231 1094 1239 1075Q1248 1056 1259 1046Q1270 1037 1281 1034Q1293 1032 1298 1032Q1323 1032 1339 1040Q1355 1049 1368 1058Q1381 1068 1392 1076Q1404 1085 1419 1085Q1431 1085 1444 1079Q1458 1074 1469 1062Q1481 1050 1489 1030Q1497 1011 1497 983Q1497 943 1481 914Q1466 885 1441 865Q1417 846 1385 836Q1354 827 1323 827Q1275 827 1236 843Q1198 860 1171 889Q1144 918 1130 957Q1116 996 1116 1040Q1116 1157 1180 1242Q1245 1328 1357 1384Q1469 1441 1618 1468Q1767 1495 1937 1495Q2018 1495 2095 1493Q2172 1492 2235 1489Q2299 1486 2345 1482Q2391 1478 2412 1473Q2432 1468 2444 1458Q2456 1449 2462 1437Q2468 1425 2470 1411Q2472 1398 2472 1384Q2472 1373 2469 1358Q2466 1344 2460 1331Q2454 1318 2445 1309Q2436 1300 2423 1300Q2415 1300 2406 1307Q2398 1314 2383 1324Q2368 1334 2342 1347Q2317 1360 2275 1371Q2234 1382 2173 1391Q2113 1400 2027 1403L2027 131Q2027 54 1987 19Q1947 -16 1864 -16ZM2744 -145Q2784 -145 2823 -131Q2862 -116 2892 -83Q2923 -49 2942 5Q2961 59 2961 137Q2961 221 2919 300Q2878 379 2815 455Q2753 532 2680 607Q2608 683 2545 761Q2483 840 2441 923Q2400 1007 2400 1098Q2400 1189 2433 1262Q2467 1336 2524 1387Q2582 1439 2658 1467Q2735 1495 2822 1495Q2915 1495 2987 1475Q3060 1456 3110 1422Q3161 1389 3187 1343Q3213 1298 3213 1247Q3213 1223 3206 1197Q3199 1172 3184 1151Q3169 1130 3146 1116Q3123 1102 3092 1102Q3055 1102 3037 1124Q3020 1147 3011 1180Q3003 1213 2997 1252Q2991 1292 2978 1325Q2965 1358 2939 1380Q2913 1403 2863 1403Q2836 1403 2809 1391Q2783 1379 2761 1354Q2740 1330 2727 1292Q2714 1254 2714 1202Q2714 1142 2739 1085Q2764 1028 2805 972Q2846 917 2898 861Q2951 806 3005 749Q3060 693 3112 633Q3165 574 3206 510Q3247 446 3272 376Q3297 306 3297 229Q3297 116 3253 27Q3210 -61 3135 -122Q3061 -182 2961 -214Q2861 -246 2748 -246Q2646 -246 2567 -221Q2489 -195 2435 -153Q2381 -111 2353 -58Q2326 -4 2326 53Q2326 77 2333 104Q2341 132 2355 155Q2370 178 2392 193Q2414 209 2443 209Q2473 209 2491 194Q2510 179 2521 154Q2532 129 2539 97Q2546 65 2554 32Q2562 -1 2574 -33Q2586 -65 2607 -90Q2628 -115 2661 -130Q2694 -145 2744 -145Z" fill="#2d2926" style=""></path></g></g></g></svg>